<mxfile host="app.diagrams.net" agent="Mozilla/5.0 (Windows NT 10.0; Win64; x64) AppleWebKit/537.36 (KHTML, like Gecko) Chrome/129.0.0.0 Safari/537.36" version="24.7.17" pages="2">
  <diagram name="使用者登入活動圖 (新)" id="bW6Ci9r2vK4AjPyaEHrU">
    <mxGraphModel grid="1" page="1" gridSize="10" guides="1" tooltips="1" connect="1" arrows="1" fold="1" pageScale="1" pageWidth="1169" pageHeight="826" background="none" math="0" shadow="0">
      <root>
        <mxCell id="IRmKno-1lxKD31Of2SCh-0" />
        <mxCell id="IRmKno-1lxKD31Of2SCh-1" parent="IRmKno-1lxKD31Of2SCh-0" />
        <mxCell id="IRmKno-1lxKD31Of2SCh-2" value="" style="ellipse;fillColor=strokeColor;html=1;" parent="IRmKno-1lxKD31Of2SCh-1" vertex="1">
          <mxGeometry x="454" y="210" width="30" height="30" as="geometry" />
        </mxCell>
        <mxCell id="IRmKno-1lxKD31Of2SCh-3" value="" style="endArrow=classic;html=1;rounded=0;fontSize=12;startSize=8;endSize=8;curved=1;exitX=0.5;exitY=1;exitDx=0;exitDy=0;" parent="IRmKno-1lxKD31Of2SCh-1" source="IRmKno-1lxKD31Of2SCh-2" edge="1">
          <mxGeometry width="50" height="50" relative="1" as="geometry">
            <mxPoint x="494" y="600" as="sourcePoint" />
            <mxPoint x="469" y="280" as="targetPoint" />
          </mxGeometry>
        </mxCell>
        <mxCell id="IRmKno-1lxKD31Of2SCh-4" value="&lt;span style=&quot;font-size: 18px;&quot;&gt;進入&lt;/span&gt;&lt;span style=&quot;font-size: 18px; background-color: initial;&quot;&gt;登入畫面&lt;/span&gt;" style="html=1;align=center;verticalAlign=top;rounded=1;absoluteArcSize=1;arcSize=10;dashed=0;whiteSpace=wrap;" parent="IRmKno-1lxKD31Of2SCh-1" vertex="1">
          <mxGeometry x="414" y="280" width="110" height="31" as="geometry" />
        </mxCell>
        <mxCell id="IRmKno-1lxKD31Of2SCh-5" value="" style="endArrow=classic;html=1;rounded=0;fontSize=12;startSize=8;endSize=8;curved=1;exitX=0.5;exitY=1;exitDx=0;exitDy=0;" parent="IRmKno-1lxKD31Of2SCh-1" source="IRmKno-1lxKD31Of2SCh-4" edge="1">
          <mxGeometry width="50" height="50" relative="1" as="geometry">
            <mxPoint x="494" y="581" as="sourcePoint" />
            <mxPoint x="469" y="361" as="targetPoint" />
          </mxGeometry>
        </mxCell>
        <mxCell id="IRmKno-1lxKD31Of2SCh-6" value="&lt;font style=&quot;font-size: 22px;&quot;&gt;使用者登入&lt;/font&gt;" style="text;html=1;align=center;verticalAlign=middle;resizable=0;points=[];autosize=1;strokeColor=none;fillColor=none;fontSize=16;" parent="IRmKno-1lxKD31Of2SCh-1" vertex="1">
          <mxGeometry x="409" y="130" width="130" height="40" as="geometry" />
        </mxCell>
        <mxCell id="IRmKno-1lxKD31Of2SCh-7" value="&lt;span style=&quot;font-size: 18px;&quot;&gt;選擇登入或&lt;/span&gt;&lt;span style=&quot;font-size: 18px; background-color: initial;&quot;&gt;忘記密碼&lt;/span&gt;" style="html=1;align=center;verticalAlign=top;rounded=1;absoluteArcSize=1;arcSize=10;dashed=0;whiteSpace=wrap;" parent="IRmKno-1lxKD31Of2SCh-1" vertex="1">
          <mxGeometry x="378.5" y="361" width="181" height="35" as="geometry" />
        </mxCell>
        <mxCell id="IRmKno-1lxKD31Of2SCh-8" value="" style="endArrow=classic;html=1;rounded=0;fontSize=12;startSize=8;endSize=8;curved=1;exitX=0.5;exitY=1;exitDx=0;exitDy=0;" parent="IRmKno-1lxKD31Of2SCh-1" source="IRmKno-1lxKD31Of2SCh-7" edge="1">
          <mxGeometry width="50" height="50" relative="1" as="geometry">
            <mxPoint x="699" y="455.58" as="sourcePoint" />
            <mxPoint x="469" y="450" as="targetPoint" />
          </mxGeometry>
        </mxCell>
        <mxCell id="IRmKno-1lxKD31Of2SCh-9" value="" style="rhombus;" parent="IRmKno-1lxKD31Of2SCh-1" vertex="1">
          <mxGeometry x="454" y="450" width="30" height="30" as="geometry" />
        </mxCell>
        <mxCell id="IRmKno-1lxKD31Of2SCh-10" value="" style="endArrow=classic;html=1;rounded=0;fontSize=12;startSize=8;endSize=8;curved=1;exitX=0;exitY=0.5;exitDx=0;exitDy=0;entryX=1;entryY=0.5;entryDx=0;entryDy=0;" parent="IRmKno-1lxKD31Of2SCh-1" source="IRmKno-1lxKD31Of2SCh-9" target="IRmKno-1lxKD31Of2SCh-12" edge="1">
          <mxGeometry relative="1" as="geometry">
            <mxPoint x="374" y="560" as="sourcePoint" />
            <mxPoint x="379" y="465" as="targetPoint" />
          </mxGeometry>
        </mxCell>
        <mxCell id="IRmKno-1lxKD31Of2SCh-11" value="[忘記密碼]" style="edgeLabel;resizable=0;html=1;fontSize=12;;align=center;verticalAlign=middle;" parent="IRmKno-1lxKD31Of2SCh-10" connectable="0" vertex="1">
          <mxGeometry relative="1" as="geometry" />
        </mxCell>
        <mxCell id="7hRgY-VzR9Ay2ovU3vOg-23" value="" style="edgeStyle=orthogonalEdgeStyle;rounded=0;orthogonalLoop=1;jettySize=auto;html=1;" edge="1" parent="IRmKno-1lxKD31Of2SCh-1" source="IRmKno-1lxKD31Of2SCh-12" target="IRmKno-1lxKD31Of2SCh-14">
          <mxGeometry relative="1" as="geometry" />
        </mxCell>
        <mxCell id="IRmKno-1lxKD31Of2SCh-12" value="&lt;span style=&quot;font-size: 18px;&quot;&gt;輸入註冊時&lt;/span&gt;&lt;span style=&quot;font-size: 18px; background-color: initial;&quot;&gt;的mail&lt;/span&gt;" style="html=1;align=center;verticalAlign=top;rounded=1;absoluteArcSize=1;arcSize=10;dashed=0;whiteSpace=wrap;" parent="IRmKno-1lxKD31Of2SCh-1" vertex="1">
          <mxGeometry x="209" y="445.5" width="151" height="34.5" as="geometry" />
        </mxCell>
        <mxCell id="IRmKno-1lxKD31Of2SCh-14" value="&lt;span style=&quot;font-size: 18px;&quot;&gt;驗證身分&lt;/span&gt;" style="html=1;align=center;verticalAlign=top;rounded=1;absoluteArcSize=1;arcSize=10;dashed=0;whiteSpace=wrap;" parent="IRmKno-1lxKD31Of2SCh-1" vertex="1">
          <mxGeometry x="224.5" y="579.75" width="120" height="30" as="geometry" />
        </mxCell>
        <mxCell id="IRmKno-1lxKD31Of2SCh-15" value="" style="endArrow=classic;html=1;rounded=0;fontSize=12;startSize=8;endSize=8;curved=1;exitX=0.5;exitY=1;exitDx=0;exitDy=0;entryX=0.5;entryY=0;entryDx=0;entryDy=0;" parent="IRmKno-1lxKD31Of2SCh-1" source="IRmKno-1lxKD31Of2SCh-14" edge="1" target="IRmKno-1lxKD31Of2SCh-16">
          <mxGeometry width="50" height="50" relative="1" as="geometry">
            <mxPoint x="199" y="730" as="sourcePoint" />
            <mxPoint x="149" y="550" as="targetPoint" />
          </mxGeometry>
        </mxCell>
        <mxCell id="IRmKno-1lxKD31Of2SCh-16" value="" style="rhombus;" parent="IRmKno-1lxKD31Of2SCh-1" vertex="1">
          <mxGeometry x="269.5" y="640" width="30" height="30" as="geometry" />
        </mxCell>
        <mxCell id="IRmKno-1lxKD31Of2SCh-17" value="" style="edgeStyle=segmentEdgeStyle;endArrow=classic;html=1;curved=0;rounded=0;endSize=8;startSize=8;sourcePerimeterSpacing=0;targetPerimeterSpacing=0;fontSize=12;exitX=0.5;exitY=1;exitDx=0;exitDy=0;entryX=0;entryY=0.5;entryDx=0;entryDy=0;" parent="IRmKno-1lxKD31Of2SCh-1" source="IRmKno-1lxKD31Of2SCh-16" target="IRmKno-1lxKD31Of2SCh-34" edge="1">
          <mxGeometry width="140" relative="1" as="geometry">
            <mxPoint x="400" y="877" as="sourcePoint" />
            <mxPoint x="434.0000000000002" y="760" as="targetPoint" />
            <Array as="points">
              <mxPoint x="285" y="845" />
            </Array>
          </mxGeometry>
        </mxCell>
        <mxCell id="IRmKno-1lxKD31Of2SCh-18" value="[錯誤]" style="edgeLabel;html=1;align=center;verticalAlign=middle;resizable=0;points=[];fontSize=12;" parent="IRmKno-1lxKD31Of2SCh-17" connectable="0" vertex="1">
          <mxGeometry x="-0.1603" y="-1" relative="1" as="geometry">
            <mxPoint as="offset" />
          </mxGeometry>
        </mxCell>
        <mxCell id="IRmKno-1lxKD31Of2SCh-19" value="&lt;span style=&quot;font-size: 18px;&quot;&gt;重新&lt;/span&gt;&lt;span style=&quot;font-size: 18px; background-color: initial;&quot;&gt;設定密碼&lt;/span&gt;" style="html=1;align=center;verticalAlign=top;rounded=1;absoluteArcSize=1;arcSize=10;dashed=0;whiteSpace=wrap;" parent="IRmKno-1lxKD31Of2SCh-1" vertex="1">
          <mxGeometry x="89" y="361" width="120" height="37" as="geometry" />
        </mxCell>
        <mxCell id="IRmKno-1lxKD31Of2SCh-20" value="" style="edgeStyle=segmentEdgeStyle;endArrow=classic;html=1;curved=0;rounded=0;endSize=8;startSize=8;sourcePerimeterSpacing=0;targetPerimeterSpacing=0;fontSize=12;exitX=0;exitY=0.5;exitDx=0;exitDy=0;entryX=0.5;entryY=1;entryDx=0;entryDy=0;" parent="IRmKno-1lxKD31Of2SCh-1" source="IRmKno-1lxKD31Of2SCh-16" target="IRmKno-1lxKD31Of2SCh-19" edge="1">
          <mxGeometry width="140" relative="1" as="geometry">
            <mxPoint x="-81" y="564.5" as="sourcePoint" />
            <mxPoint x="110" y="400" as="targetPoint" />
            <Array as="points">
              <mxPoint x="150" y="655" />
              <mxPoint x="150" y="398" />
            </Array>
          </mxGeometry>
        </mxCell>
        <mxCell id="IRmKno-1lxKD31Of2SCh-21" value="[正確]" style="edgeLabel;html=1;align=center;verticalAlign=middle;resizable=0;points=[];fontSize=12;" parent="IRmKno-1lxKD31Of2SCh-20" connectable="0" vertex="1">
          <mxGeometry x="-0.1603" y="-1" relative="1" as="geometry">
            <mxPoint as="offset" />
          </mxGeometry>
        </mxCell>
        <mxCell id="IRmKno-1lxKD31Of2SCh-22" value="" style="endArrow=classic;html=1;rounded=0;fontSize=12;startSize=8;endSize=8;curved=1;entryX=0;entryY=0.5;entryDx=0;entryDy=0;" parent="IRmKno-1lxKD31Of2SCh-1" target="IRmKno-1lxKD31Of2SCh-7" edge="1">
          <mxGeometry width="50" height="50" relative="1" as="geometry">
            <mxPoint x="209" y="380" as="sourcePoint" />
            <mxPoint x="259" y="330" as="targetPoint" />
          </mxGeometry>
        </mxCell>
        <mxCell id="IRmKno-1lxKD31Of2SCh-23" value="" style="endArrow=classic;html=1;rounded=0;fontSize=12;startSize=8;endSize=8;curved=1;exitX=0.5;exitY=1;exitDx=0;exitDy=0;entryX=0.5;entryY=0;entryDx=0;entryDy=0;" parent="IRmKno-1lxKD31Of2SCh-1" source="IRmKno-1lxKD31Of2SCh-9" edge="1" target="e-2MvO-mP0tPNGJkLi_2-0">
          <mxGeometry relative="1" as="geometry">
            <mxPoint x="470" y="500" as="sourcePoint" />
            <mxPoint x="555" y="500" as="targetPoint" />
          </mxGeometry>
        </mxCell>
        <mxCell id="IRmKno-1lxKD31Of2SCh-24" value="[登入]" style="edgeLabel;resizable=0;html=1;fontSize=12;;align=center;verticalAlign=middle;" parent="IRmKno-1lxKD31Of2SCh-23" connectable="0" vertex="1">
          <mxGeometry relative="1" as="geometry" />
        </mxCell>
        <mxCell id="IRmKno-1lxKD31Of2SCh-27" value="&lt;span style=&quot;font-size: 18px;&quot;&gt;輸入&lt;/span&gt;&lt;span style=&quot;font-size: 18px; background-color: initial;&quot;&gt;帳號密碼&lt;/span&gt;" style="html=1;align=center;verticalAlign=top;rounded=1;absoluteArcSize=1;arcSize=10;dashed=0;whiteSpace=wrap;" parent="IRmKno-1lxKD31Of2SCh-1" vertex="1">
          <mxGeometry x="420" y="626.75" width="120" height="36.5" as="geometry" />
        </mxCell>
        <mxCell id="IRmKno-1lxKD31Of2SCh-32" value="&lt;span style=&quot;font-size: 18px;&quot;&gt;登入成功&lt;/span&gt;" style="html=1;align=center;verticalAlign=top;rounded=1;absoluteArcSize=1;arcSize=10;dashed=0;whiteSpace=wrap;" vertex="1" parent="IRmKno-1lxKD31Of2SCh-1">
          <mxGeometry x="598.5" y="823.75" width="120" height="42.5" as="geometry" />
        </mxCell>
        <mxCell id="IRmKno-1lxKD31Of2SCh-33" value="" style="endArrow=classic;html=1;rounded=0;fontSize=12;startSize=8;endSize=8;curved=1;exitX=0.013;exitY=0.5;exitDx=0;exitDy=0;entryX=1;entryY=0.5;entryDx=0;entryDy=0;exitPerimeter=0;" edge="1" parent="IRmKno-1lxKD31Of2SCh-1" source="IRmKno-1lxKD31Of2SCh-32" target="IRmKno-1lxKD31Of2SCh-34">
          <mxGeometry width="50" height="50" relative="1" as="geometry">
            <mxPoint x="598.5" y="850" as="sourcePoint" />
            <mxPoint x="598.5" y="887.5" as="targetPoint" />
          </mxGeometry>
        </mxCell>
        <mxCell id="IRmKno-1lxKD31Of2SCh-34" value="" style="ellipse;html=1;shape=endState;fillColor=strokeColor;" vertex="1" parent="IRmKno-1lxKD31Of2SCh-1">
          <mxGeometry x="520" y="830" width="30" height="30" as="geometry" />
        </mxCell>
        <mxCell id="e-2MvO-mP0tPNGJkLi_2-0" value="" style="rhombus;" vertex="1" parent="IRmKno-1lxKD31Of2SCh-1">
          <mxGeometry x="454" y="530" width="30" height="30" as="geometry" />
        </mxCell>
        <mxCell id="e-2MvO-mP0tPNGJkLi_2-1" value="" style="endArrow=classic;html=1;rounded=0;exitX=1;exitY=0.5;exitDx=0;exitDy=0;entryX=0;entryY=0.5;entryDx=0;entryDy=0;" edge="1" parent="IRmKno-1lxKD31Of2SCh-1" source="e-2MvO-mP0tPNGJkLi_2-0" target="e-2MvO-mP0tPNGJkLi_2-6">
          <mxGeometry width="50" height="50" relative="1" as="geometry">
            <mxPoint x="599" y="465.04999999999995" as="sourcePoint" />
            <mxPoint x="633.81" y="403.25" as="targetPoint" />
            <Array as="points">
              <mxPoint x="520" y="545" />
            </Array>
          </mxGeometry>
        </mxCell>
        <mxCell id="e-2MvO-mP0tPNGJkLi_2-2" value="[Google登入]" style="edgeLabel;html=1;align=center;verticalAlign=middle;resizable=0;points=[];" connectable="0" vertex="1" parent="e-2MvO-mP0tPNGJkLi_2-1">
          <mxGeometry x="-0.4338" relative="1" as="geometry">
            <mxPoint x="21" y="-1" as="offset" />
          </mxGeometry>
        </mxCell>
        <mxCell id="e-2MvO-mP0tPNGJkLi_2-3" value="" style="endArrow=classic;html=1;rounded=0;exitX=0.5;exitY=1;exitDx=0;exitDy=0;entryX=0.409;entryY=0.038;entryDx=0;entryDy=0;entryPerimeter=0;" edge="1" parent="IRmKno-1lxKD31Of2SCh-1" source="e-2MvO-mP0tPNGJkLi_2-0" target="IRmKno-1lxKD31Of2SCh-27">
          <mxGeometry width="50" height="50" relative="1" as="geometry">
            <mxPoint x="583" y="559" as="sourcePoint" />
            <mxPoint x="629" y="510" as="targetPoint" />
            <Array as="points">
              <mxPoint x="470" y="600" />
            </Array>
          </mxGeometry>
        </mxCell>
        <mxCell id="e-2MvO-mP0tPNGJkLi_2-5" value="[帳號密碼登入]" style="edgeLabel;html=1;align=center;verticalAlign=middle;resizable=0;points=[];" connectable="0" vertex="1" parent="e-2MvO-mP0tPNGJkLi_2-3">
          <mxGeometry x="-0.6712" relative="1" as="geometry">
            <mxPoint as="offset" />
          </mxGeometry>
        </mxCell>
        <mxCell id="e-2MvO-mP0tPNGJkLi_2-6" value="&lt;span style=&quot;font-size: 18px;&quot;&gt;Google驗證&lt;/span&gt;" style="html=1;align=center;verticalAlign=top;rounded=1;absoluteArcSize=1;arcSize=10;dashed=0;whiteSpace=wrap;" vertex="1" parent="IRmKno-1lxKD31Of2SCh-1">
          <mxGeometry x="610" y="527.5" width="120" height="35" as="geometry" />
        </mxCell>
        <mxCell id="7hRgY-VzR9Ay2ovU3vOg-1" value="" style="rhombus;" vertex="1" parent="IRmKno-1lxKD31Of2SCh-1">
          <mxGeometry x="559.5" y="730" width="30" height="30" as="geometry" />
        </mxCell>
        <mxCell id="7hRgY-VzR9Ay2ovU3vOg-9" value="" style="edgeStyle=segmentEdgeStyle;endArrow=classic;html=1;curved=0;rounded=0;endSize=8;startSize=8;sourcePerimeterSpacing=0;targetPerimeterSpacing=0;entryX=0;entryY=0.5;entryDx=0;entryDy=0;exitX=1;exitY=0.5;exitDx=0;exitDy=0;" edge="1" parent="IRmKno-1lxKD31Of2SCh-1" source="IRmKno-1lxKD31Of2SCh-27" target="7hRgY-VzR9Ay2ovU3vOg-17">
          <mxGeometry width="100" relative="1" as="geometry">
            <mxPoint x="752" y="617" as="sourcePoint" />
            <mxPoint x="799" y="480" as="targetPoint" />
            <Array as="points">
              <mxPoint x="610" y="645" />
            </Array>
          </mxGeometry>
        </mxCell>
        <mxCell id="7hRgY-VzR9Ay2ovU3vOg-10" value="" style="edgeStyle=segmentEdgeStyle;endArrow=classic;html=1;curved=0;rounded=0;endSize=8;startSize=8;sourcePerimeterSpacing=0;targetPerimeterSpacing=0;exitX=1;exitY=0.5;exitDx=0;exitDy=0;entryX=0.507;entryY=0.005;entryDx=0;entryDy=0;entryPerimeter=0;" edge="1" parent="IRmKno-1lxKD31Of2SCh-1" source="7hRgY-VzR9Ay2ovU3vOg-1" target="IRmKno-1lxKD31Of2SCh-32">
          <mxGeometry width="100" relative="1" as="geometry">
            <mxPoint x="598.5" y="745.25" as="sourcePoint" />
            <mxPoint x="710" y="800" as="targetPoint" />
            <Array as="points">
              <mxPoint x="659" y="745" />
              <mxPoint x="659" y="820" />
              <mxPoint x="659" y="820" />
            </Array>
          </mxGeometry>
        </mxCell>
        <mxCell id="7hRgY-VzR9Ay2ovU3vOg-12" value="[正確]" style="edgeLabel;html=1;align=center;verticalAlign=middle;resizable=0;points=[];" connectable="0" vertex="1" parent="7hRgY-VzR9Ay2ovU3vOg-10">
          <mxGeometry x="0.1652" y="-2" relative="1" as="geometry">
            <mxPoint as="offset" />
          </mxGeometry>
        </mxCell>
        <mxCell id="7hRgY-VzR9Ay2ovU3vOg-17" value="&lt;span style=&quot;font-size: 18px;&quot;&gt;驗證身分&lt;/span&gt;" style="html=1;align=center;verticalAlign=top;rounded=1;absoluteArcSize=1;arcSize=10;dashed=0;whiteSpace=wrap;" vertex="1" parent="IRmKno-1lxKD31Of2SCh-1">
          <mxGeometry x="610" y="626.75" width="120" height="36.5" as="geometry" />
        </mxCell>
        <mxCell id="7hRgY-VzR9Ay2ovU3vOg-18" value="" style="endArrow=classic;html=1;rounded=0;entryX=0.5;entryY=0;entryDx=0;entryDy=0;exitX=0.5;exitY=1;exitDx=0;exitDy=0;" edge="1" parent="IRmKno-1lxKD31Of2SCh-1" source="e-2MvO-mP0tPNGJkLi_2-6" target="7hRgY-VzR9Ay2ovU3vOg-17">
          <mxGeometry width="50" height="50" relative="1" as="geometry">
            <mxPoint x="823.5" y="462" as="sourcePoint" />
            <mxPoint x="873.5" y="412" as="targetPoint" />
          </mxGeometry>
        </mxCell>
        <mxCell id="7hRgY-VzR9Ay2ovU3vOg-19" value="" style="endArrow=classic;html=1;rounded=0;exitX=0.5;exitY=1;exitDx=0;exitDy=0;entryX=0.5;entryY=0;entryDx=0;entryDy=0;" edge="1" parent="IRmKno-1lxKD31Of2SCh-1" source="7hRgY-VzR9Ay2ovU3vOg-17" target="7hRgY-VzR9Ay2ovU3vOg-1">
          <mxGeometry width="50" height="50" relative="1" as="geometry">
            <mxPoint x="671.75" y="690" as="sourcePoint" />
            <mxPoint x="570" y="710" as="targetPoint" />
            <Array as="points">
              <mxPoint x="670" y="710" />
              <mxPoint x="575" y="710" />
            </Array>
          </mxGeometry>
        </mxCell>
        <mxCell id="7hRgY-VzR9Ay2ovU3vOg-20" value="" style="edgeStyle=segmentEdgeStyle;endArrow=classic;html=1;curved=0;rounded=0;endSize=8;startSize=8;sourcePerimeterSpacing=0;targetPerimeterSpacing=0;entryX=0;entryY=0.5;entryDx=0;entryDy=0;" edge="1" parent="IRmKno-1lxKD31Of2SCh-1" target="IRmKno-1lxKD31Of2SCh-34">
          <mxGeometry width="100" relative="1" as="geometry">
            <mxPoint x="560" y="745" as="sourcePoint" />
            <mxPoint x="301.5" y="654.25" as="targetPoint" />
            <Array as="points">
              <mxPoint x="500" y="745" />
              <mxPoint x="500" y="845" />
            </Array>
          </mxGeometry>
        </mxCell>
        <mxCell id="7hRgY-VzR9Ay2ovU3vOg-21" value="[錯誤]" style="edgeLabel;html=1;align=center;verticalAlign=middle;resizable=0;points=[];" connectable="0" vertex="1" parent="7hRgY-VzR9Ay2ovU3vOg-20">
          <mxGeometry x="-0.0611" y="2" relative="1" as="geometry">
            <mxPoint as="offset" />
          </mxGeometry>
        </mxCell>
      </root>
    </mxGraphModel>
  </diagram>
  <diagram name="使用者註冊活動圖" id="xk3s4cjPioBTT8p6njSb">
    <mxGraphModel grid="1" page="1" gridSize="10" guides="1" tooltips="1" connect="1" arrows="1" fold="1" pageScale="1" pageWidth="1169" pageHeight="826" background="none" math="0" shadow="0">
      <root>
        <mxCell id="yRLAEtPfdezK3DC8_HjQ-0" />
        <mxCell id="yRLAEtPfdezK3DC8_HjQ-1" parent="yRLAEtPfdezK3DC8_HjQ-0" />
        <mxCell id="yRLAEtPfdezK3DC8_HjQ-2" value="" style="ellipse;fillColor=strokeColor;html=1;" vertex="1" parent="yRLAEtPfdezK3DC8_HjQ-1">
          <mxGeometry x="490" y="200" width="30" height="30" as="geometry" />
        </mxCell>
        <mxCell id="yRLAEtPfdezK3DC8_HjQ-3" value="" style="endArrow=classic;html=1;rounded=0;fontSize=12;startSize=8;endSize=8;curved=1;exitX=0.5;exitY=1;exitDx=0;exitDy=0;" edge="1" parent="yRLAEtPfdezK3DC8_HjQ-1" source="yRLAEtPfdezK3DC8_HjQ-2">
          <mxGeometry width="50" height="50" relative="1" as="geometry">
            <mxPoint x="530" y="590" as="sourcePoint" />
            <mxPoint x="505" y="270" as="targetPoint" />
          </mxGeometry>
        </mxCell>
        <mxCell id="yRLAEtPfdezK3DC8_HjQ-4" value="&lt;span style=&quot;font-size: 18px;&quot;&gt;進入&lt;/span&gt;&lt;div&gt;&lt;span style=&quot;font-size: 18px;&quot;&gt;註冊畫面&lt;/span&gt;&lt;/div&gt;" style="html=1;align=center;verticalAlign=top;rounded=1;absoluteArcSize=1;arcSize=10;dashed=0;whiteSpace=wrap;" vertex="1" parent="yRLAEtPfdezK3DC8_HjQ-1">
          <mxGeometry x="450" y="270" width="110" height="50" as="geometry" />
        </mxCell>
        <mxCell id="yRLAEtPfdezK3DC8_HjQ-5" value="" style="endArrow=classic;html=1;rounded=0;fontSize=12;startSize=8;endSize=8;curved=1;exitX=0.5;exitY=1;exitDx=0;exitDy=0;" edge="1" parent="yRLAEtPfdezK3DC8_HjQ-1" source="yRLAEtPfdezK3DC8_HjQ-4">
          <mxGeometry width="50" height="50" relative="1" as="geometry">
            <mxPoint x="530" y="590" as="sourcePoint" />
            <mxPoint x="505" y="370" as="targetPoint" />
          </mxGeometry>
        </mxCell>
        <mxCell id="yRLAEtPfdezK3DC8_HjQ-8" value="&lt;span style=&quot;font-size: 18px;&quot;&gt;輸入&lt;/span&gt;&lt;div&gt;&lt;span style=&quot;font-size: 18px;&quot;&gt;會員資料&lt;/span&gt;&lt;/div&gt;" style="html=1;align=center;verticalAlign=top;rounded=1;absoluteArcSize=1;arcSize=10;dashed=0;whiteSpace=wrap;" vertex="1" parent="yRLAEtPfdezK3DC8_HjQ-1">
          <mxGeometry x="450" y="370" width="110" height="55" as="geometry" />
        </mxCell>
        <mxCell id="yRLAEtPfdezK3DC8_HjQ-12" value="&lt;font style=&quot;font-size: 22px;&quot;&gt;使用者註冊&lt;/font&gt;" style="text;html=1;align=center;verticalAlign=middle;resizable=0;points=[];autosize=1;strokeColor=none;fillColor=none;fontSize=16;" vertex="1" parent="yRLAEtPfdezK3DC8_HjQ-1">
          <mxGeometry x="450" y="150" width="130" height="40" as="geometry" />
        </mxCell>
        <mxCell id="yRLAEtPfdezK3DC8_HjQ-13" value="" style="endArrow=none;dashed=1;html=1;dashPattern=1 3;strokeWidth=2;rounded=0;fontSize=12;startSize=8;endSize=8;curved=1;entryX=1;entryY=0.5;entryDx=0;entryDy=0;exitX=0;exitY=0.5;exitDx=0;exitDy=0;exitPerimeter=0;" edge="1" parent="yRLAEtPfdezK3DC8_HjQ-1" source="yRLAEtPfdezK3DC8_HjQ-14" target="yRLAEtPfdezK3DC8_HjQ-8">
          <mxGeometry width="50" height="50" relative="1" as="geometry">
            <mxPoint x="570" y="540" as="sourcePoint" />
            <mxPoint x="570" y="490" as="targetPoint" />
          </mxGeometry>
        </mxCell>
        <mxCell id="yRLAEtPfdezK3DC8_HjQ-14" value="&lt;div&gt;使用者名稱&lt;/div&gt;信箱(帳號)&lt;div&gt;密碼&lt;/div&gt;" style="shape=note2;boundedLbl=1;whiteSpace=wrap;html=1;size=18;verticalAlign=top;align=center;" vertex="1" parent="yRLAEtPfdezK3DC8_HjQ-1">
          <mxGeometry x="640" y="357.5" width="120" height="80" as="geometry" />
        </mxCell>
        <mxCell id="yRLAEtPfdezK3DC8_HjQ-15" value="" style="endArrow=classic;html=1;rounded=0;fontSize=12;startSize=8;endSize=8;curved=1;exitX=0.5;exitY=1;exitDx=0;exitDy=0;entryX=0.5;entryY=0;entryDx=0;entryDy=0;" edge="1" parent="yRLAEtPfdezK3DC8_HjQ-1" source="yRLAEtPfdezK3DC8_HjQ-8" target="yRLAEtPfdezK3DC8_HjQ-16">
          <mxGeometry width="50" height="50" relative="1" as="geometry">
            <mxPoint x="370" y="570" as="sourcePoint" />
            <mxPoint x="335" y="550" as="targetPoint" />
          </mxGeometry>
        </mxCell>
        <mxCell id="yRLAEtPfdezK3DC8_HjQ-16" value="&lt;span style=&quot;font-size: 18px;&quot;&gt;驗證會員資料&lt;/span&gt;" style="html=1;align=center;verticalAlign=top;rounded=1;absoluteArcSize=1;arcSize=10;dashed=0;whiteSpace=wrap;" vertex="1" parent="yRLAEtPfdezK3DC8_HjQ-1">
          <mxGeometry x="450" y="500" width="110" height="40" as="geometry" />
        </mxCell>
        <mxCell id="yRLAEtPfdezK3DC8_HjQ-17" value="" style="endArrow=classic;html=1;rounded=0;fontSize=12;startSize=8;endSize=8;curved=1;exitX=0.5;exitY=1;exitDx=0;exitDy=0;entryX=0.5;entryY=0;entryDx=0;entryDy=0;" edge="1" parent="yRLAEtPfdezK3DC8_HjQ-1" source="yRLAEtPfdezK3DC8_HjQ-16" target="yRLAEtPfdezK3DC8_HjQ-18">
          <mxGeometry width="50" height="50" relative="1" as="geometry">
            <mxPoint x="370" y="670" as="sourcePoint" />
            <mxPoint x="335" y="630" as="targetPoint" />
          </mxGeometry>
        </mxCell>
        <mxCell id="yRLAEtPfdezK3DC8_HjQ-18" value="" style="rhombus;" vertex="1" parent="yRLAEtPfdezK3DC8_HjQ-1">
          <mxGeometry x="490" y="580" width="30" height="30" as="geometry" />
        </mxCell>
        <mxCell id="yRLAEtPfdezK3DC8_HjQ-21" value="" style="endArrow=classic;html=1;rounded=0;fontSize=12;startSize=8;endSize=8;curved=1;exitX=0.5;exitY=1;exitDx=0;exitDy=0;entryX=0.5;entryY=0;entryDx=0;entryDy=0;" edge="1" parent="yRLAEtPfdezK3DC8_HjQ-1" source="yRLAEtPfdezK3DC8_HjQ-18" target="yRLAEtPfdezK3DC8_HjQ-25">
          <mxGeometry relative="1" as="geometry">
            <mxPoint x="340" y="690" as="sourcePoint" />
            <mxPoint x="335" y="720" as="targetPoint" />
          </mxGeometry>
        </mxCell>
        <mxCell id="yRLAEtPfdezK3DC8_HjQ-22" value="[正確]" style="edgeLabel;resizable=0;html=1;fontSize=12;;align=center;verticalAlign=middle;" connectable="0" vertex="1" parent="yRLAEtPfdezK3DC8_HjQ-21">
          <mxGeometry relative="1" as="geometry" />
        </mxCell>
        <mxCell id="yRLAEtPfdezK3DC8_HjQ-23" value="" style="edgeStyle=segmentEdgeStyle;endArrow=classic;html=1;curved=0;rounded=0;endSize=8;startSize=8;sourcePerimeterSpacing=0;targetPerimeterSpacing=0;fontSize=12;exitX=0;exitY=0.5;exitDx=0;exitDy=0;" edge="1" parent="yRLAEtPfdezK3DC8_HjQ-1" source="yRLAEtPfdezK3DC8_HjQ-18">
          <mxGeometry width="140" relative="1" as="geometry">
            <mxPoint x="460" y="574.5" as="sourcePoint" />
            <mxPoint x="450" y="400" as="targetPoint" />
            <Array as="points">
              <mxPoint x="330" y="595" />
              <mxPoint x="330" y="400" />
              <mxPoint x="450" y="400" />
            </Array>
          </mxGeometry>
        </mxCell>
        <mxCell id="yRLAEtPfdezK3DC8_HjQ-24" value="[錯誤]" style="edgeLabel;html=1;align=center;verticalAlign=middle;resizable=0;points=[];fontSize=12;" vertex="1" connectable="0" parent="yRLAEtPfdezK3DC8_HjQ-23">
          <mxGeometry x="-0.6817" y="1" relative="1" as="geometry">
            <mxPoint as="offset" />
          </mxGeometry>
        </mxCell>
        <mxCell id="yRLAEtPfdezK3DC8_HjQ-25" value="&lt;span style=&quot;font-size: 18px;&quot;&gt;註冊成功&lt;/span&gt;" style="html=1;align=center;verticalAlign=top;rounded=1;absoluteArcSize=1;arcSize=10;dashed=0;whiteSpace=wrap;" vertex="1" parent="yRLAEtPfdezK3DC8_HjQ-1">
          <mxGeometry x="450" y="690" width="110" height="40" as="geometry" />
        </mxCell>
        <mxCell id="RFe_h0FO9p7eM0ZmH73--0" value="" style="endArrow=classic;html=1;rounded=0;fontSize=12;startSize=8;endSize=8;curved=1;" edge="1" parent="yRLAEtPfdezK3DC8_HjQ-1">
          <mxGeometry width="50" height="50" relative="1" as="geometry">
            <mxPoint x="560" y="710" as="sourcePoint" />
            <mxPoint x="610" y="710" as="targetPoint" />
          </mxGeometry>
        </mxCell>
        <mxCell id="RFe_h0FO9p7eM0ZmH73--1" value="&lt;span style=&quot;font-size: 18px;&quot;&gt;進入登入畫面&lt;/span&gt;" style="html=1;align=center;verticalAlign=top;rounded=1;absoluteArcSize=1;arcSize=10;dashed=0;whiteSpace=wrap;" vertex="1" parent="yRLAEtPfdezK3DC8_HjQ-1">
          <mxGeometry x="610" y="690" width="120" height="40" as="geometry" />
        </mxCell>
        <mxCell id="RFe_h0FO9p7eM0ZmH73--2" value="" style="endArrow=classic;html=1;rounded=0;fontSize=12;startSize=8;endSize=8;curved=1;" edge="1" parent="yRLAEtPfdezK3DC8_HjQ-1">
          <mxGeometry width="50" height="50" relative="1" as="geometry">
            <mxPoint x="730" y="710" as="sourcePoint" />
            <mxPoint x="780" y="710" as="targetPoint" />
          </mxGeometry>
        </mxCell>
        <mxCell id="RFe_h0FO9p7eM0ZmH73--3" value="" style="ellipse;html=1;shape=endState;fillColor=strokeColor;" vertex="1" parent="yRLAEtPfdezK3DC8_HjQ-1">
          <mxGeometry x="780" y="695" width="30" height="30" as="geometry" />
        </mxCell>
      </root>
    </mxGraphModel>
  </diagram>
</mxfile>
